<svg width="209" height="48" viewBox="0 0 209 48" fill="none" xmlns="http://www.w3.org/2000/svg">
<path d="M97.8584 5.43579H108.969V42.9102H97.8584V5.43579Z" fill="#222832"/>
<path d="M167.467 37.317H153.512L151.651 42.9051H139.996L154.772 5.43066H166.155L180.983 42.9051H169.381L167.467 37.317ZM164.952 29.9659L160.466 16.7695L156.032 29.9659H164.952Z" fill="#222832"/>
<path d="M183.394 5.43579H194.504V33.6964H208.799V42.9102H183.399V5.43579H183.394Z" fill="#222832"/>
<path d="M130.58 5.44116H113.017V42.9103H124.127V32.5264H130.58C139.06 32.5264 145.021 26.5868 145.021 18.9838C145.021 11.3808 139.055 5.44116 130.58 5.44116ZM129.978 23.8006H124.127V14.167H129.978C132.823 14.167 134.904 16.2029 134.904 18.9838C134.904 21.7647 132.823 23.8006 129.978 23.8006Z" fill="#222832"/>
<path d="M95.4693 5.43579H83.3755L74.9469 30.5377L66.5759 5.43579H54.5762L69.1902 42.9102H80.6932L95.4693 5.43579Z" fill="#222832"/>
<path d="M12.272 23.2235C16.7111 16.1295 23.7227 7.8811 34.295 2.32972C34.0336 2.21953 33.7722 2.1041 33.5003 1.99916C22.6352 -2.17225 10.578 2.38744 4.99902 12.2361C6.85519 18.265 10.0237 21.429 12.2668 23.2182L12.272 23.2235Z" fill="#222832"/>
<path d="M21.6523 46.8405C32.2455 48.4933 42.9172 42.5799 46.9066 32.1225C48.8569 27.0119 48.8883 21.6389 47.3667 16.7959C30.5776 22.788 23.4824 41.1684 21.6576 46.8405H21.6523Z" fill="#222832"/>
<path d="M19.5655 48C18.2636 47.5592 6.09658 42.7634 0 28.4547L1.6993 27.7254C7.16322 38.1513 17.0349 42.6008 17.1394 42.6375L17.2492 42.6795L17.2858 42.564C17.3695 42.3017 25.9392 16.3236 48.7308 10.6777L50.1059 14.2142C27.5758 19.7341 20.0936 46.0166 19.5603 47.9895L19.5655 48Z" fill="#222832"/>
<path d="M16.2036 39.9562C11.6913 37.4534 3.83269 31.5137 0.308594 20.3165L2.06541 19.7708C7.04307 30.6742 14.4363 34.2107 14.5148 34.2422L14.6037 34.2841L14.6507 34.1949C14.6507 34.1949 15.1527 33.3029 15.8533 31.8967C18.3003 26.9697 27.7484 10.5098 46.6342 5.30469L48.025 8.87793C31.9104 13.3642 23.1368 26.0673 19.3408 33.2557C17.5317 36.5981 16.5696 38.975 16.2036 39.9509V39.9562Z" fill="#222832"/>
<path d="M44.5635 -3.95067e-06C27.8895 4.91123 18.091 16.6069 12.8049 25.5636L12.7421 25.6686L12.6428 25.5951C10.4624 24.0105 5.36975 20.3166 3.04824 11.4858L1.27051 11.8059C3.96325 24.9917 12.7683 30.9681 13.8297 31.6449C14.6453 29.9082 24.7261 9.25054 45.9334 3.49978L44.5688 -0.010498L44.5635 -3.95067e-06Z" fill="#222832"/>
</svg>
