<svg width="200" height="37" viewBox="0 0 200 37" fill="none" xmlns="http://www.w3.org/2000/svg">
<path fill-rule="evenodd" clip-rule="evenodd" d="M137.954 11.3286L139.935 6.33215H145.325L145.3 6.35689C149.135 6.45583 150.414 7.51943 149.887 8.83039C149.361 10.1661 146.653 11.3039 142.642 11.3286H137.954ZM78.7415 21.4452L80.722 16.4488H86.0617C89.8972 16.5477 91.1507 17.6113 90.6493 18.947C90.1479 20.2579 87.4154 21.4205 83.4044 21.4452H78.7415ZM82.7776 11.3286L84.7831 6.33215H90.1479V6.35689C93.9584 6.45583 95.2369 7.51943 94.7355 8.83039C94.2091 10.1661 91.5016 11.3039 87.4906 11.3286H82.7776ZM87.7162 28.5442C101.128 28.4452 110.003 25.947 111.707 21.5194C113.337 17.3392 109.927 15.1131 105.49 13.9505C111.657 12.8869 115.643 11.1555 116.721 8.36042C118.426 3.90813 114.189 0.346289 101.404 0.0247346L101.429 0H73.2514L51.5167 13.3816L61.6696 28.5442H87.7162ZM188.594 28.5442L200 0H179.092L168.413 26.7138L156.756 16.0283C164.778 14.9894 169.917 12.9117 171.873 8.36042C173.753 3.98233 169.341 0.346289 156.556 0.0247346V0H121.559L110.153 28.5442H131.06L135.322 17.9081L146.904 28.5442H188.594Z" fill="#16140F"/>
<path fill-rule="evenodd" clip-rule="evenodd" d="M182.677 35.0495L183.379 34.5548C183.454 34.8516 183.555 35.0495 183.68 35.1979C183.805 35.3216 183.981 35.371 184.207 35.371C184.482 35.371 184.758 35.2968 184.959 35.1237C185.184 34.9753 185.335 34.7526 185.385 34.5053C185.435 34.3321 185.435 34.159 185.385 34.0353C185.335 33.9117 185.209 33.788 185.009 33.6396C184.959 33.6148 184.908 33.5654 184.833 33.5159C184.482 33.2933 184.257 33.1201 184.182 32.947C184.106 32.8481 184.081 32.7244 184.056 32.576C184.056 32.4276 184.056 32.2791 184.106 32.106C184.232 31.636 184.482 31.265 184.858 30.9682C185.234 30.6714 185.661 30.523 186.137 30.523C186.463 30.523 186.739 30.5972 186.939 30.7208C187.165 30.8445 187.315 31.0424 187.39 31.3145L186.764 31.7844C186.688 31.5866 186.613 31.4382 186.488 31.364C186.362 31.265 186.212 31.2155 186.037 31.2155C185.786 31.2155 185.535 31.2897 185.36 31.4382C185.159 31.5866 185.034 31.7844 184.959 32.0318C184.883 32.3286 185.059 32.6007 185.46 32.8233C185.56 32.8728 185.635 32.9223 185.686 32.9717C185.986 33.1696 186.187 33.3922 186.287 33.6148C186.388 33.8375 186.388 34.1095 186.287 34.4311C186.162 34.9258 185.886 35.3215 185.485 35.6184C185.084 35.9152 184.608 36.0636 184.056 36.0636C183.68 36.0636 183.379 35.9894 183.154 35.7915C182.878 35.6431 182.753 35.3958 182.677 35.0495ZM166.307 30.6961L165.104 33.7632C165.054 33.8622 165.029 33.9611 165.004 34.0601C164.954 34.1343 164.929 34.2332 164.929 34.3074C164.853 34.629 164.878 34.9011 165.029 35.0742C165.179 35.2473 165.43 35.3463 165.781 35.3463C166.057 35.3463 166.282 35.2968 166.508 35.2226C166.734 35.1237 166.934 35 167.11 34.8269C167.36 34.6042 167.586 34.159 167.811 33.5406C167.837 33.4912 167.862 33.417 167.862 33.3922L168.915 30.7208H169.742L168.564 33.689C168.363 34.1837 168.188 34.5548 168.062 34.7774C167.912 35 167.761 35.1979 167.561 35.371C167.285 35.6184 166.984 35.8162 166.608 35.9399C166.257 36.0636 165.881 36.1378 165.43 36.1378C164.828 36.1378 164.402 35.9894 164.176 35.6926C163.951 35.3958 163.901 34.9753 164.051 34.3816C164.076 34.2579 164.126 34.0848 164.227 33.8622C164.302 33.6396 164.402 33.3922 164.502 33.1201L165.455 30.7208H166.307V30.6961ZM145.5 35.9399L147.581 30.6961H150.564L150.263 31.4382H148.107L147.581 32.7738H149.737L149.461 33.5159H147.305L146.653 35.2226H148.809L148.508 35.9647H145.5V35.9399ZM125.671 35.9399L127.827 30.4735L129.857 33.7632C129.932 33.8869 129.982 33.9859 130.058 34.1095C130.108 34.2085 130.158 34.3321 130.208 34.4311C130.258 34.3321 130.283 34.2085 130.308 34.0848C130.358 33.9611 130.409 33.8127 130.484 33.6148L131.662 30.6961H132.439L130.283 36.1625L128.228 32.8728C128.152 32.7244 128.077 32.6007 128.002 32.5018C127.952 32.4028 127.927 32.3039 127.877 32.2049C127.827 32.3781 127.751 32.6254 127.601 32.947C127.576 32.9717 127.576 32.9965 127.576 33.0212L126.423 35.9399H125.671ZM108.498 35.9399H107.671L109.752 30.6961H110.855C111.281 30.6961 111.582 30.7208 111.757 30.7703C111.933 30.8198 112.083 30.894 112.209 31.0177C112.334 31.1413 112.409 31.2897 112.434 31.4876C112.459 31.6608 112.459 31.8834 112.384 32.106C112.334 32.3781 112.209 32.6254 112.058 32.8233C111.908 33.0212 111.707 33.2191 111.482 33.3675C111.281 33.4912 111.08 33.5901 110.855 33.6396C110.629 33.689 110.278 33.7138 109.827 33.7138H109.401L108.498 35.9399ZM109.702 32.947H109.977C110.504 32.947 110.88 32.8975 111.106 32.7491C111.331 32.6254 111.482 32.4276 111.557 32.1307C111.607 31.8834 111.582 31.6855 111.457 31.5866C111.331 31.4876 111.03 31.4382 110.579 31.4382H110.303L109.702 32.947Z" fill="#16140F"/>
<path fill-rule="evenodd" clip-rule="evenodd" d="M34.7706 28.5442H55.7032L45.5503 13.3816L67.26 9.31423e-08H46.3525L39.4334 4.25442L36.6007 9.31423e-08H15.6681L24.6428 13.3816L0 28.5442H20.9326L30.7345 22.5088L34.7706 28.5442Z" fill="#E3151A"/>
</svg>
